<svg aria-hidden="true" style="position: absolute; width: 0; height: 0; overflow: hidden;" version="1.1" xmlns="http://www.w3.org/2000/svg" xmlns:xlink="http://www.w3.org/1999/xlink">
<defs>
<symbol id="icon-arrow-pagination" viewBox="0 0 32 32">
<path d="M31.003 15.103h-27.736l8.298-8.266c0.39-0.39 0.39-1.021 0-1.409-0.39-0.39-1.021-0.39-1.409 0l-9.867 9.866c-0.384 0.384-0.384 1.026 0 1.409l9.867 9.867c0.39 0.39 1.021 0.39 1.409 0s0.39-1.021 0-1.409l-8.298-8.065h27.736c0.55 0 0.997-0.447 0.997-0.997s-0.446-0.997-0.997-0.997z"></path>
</symbol>
<symbol id="icon-upload" viewBox="0 0 32 32">
<path d="M0.5 16c0-8.563 6.938-15.5 15.5-15.5s15.5 6.938 15.5 15.5-6.938 15.5-15.5 15.5-15.5-6.938-15.5-15.5zM9.475 17.806l4.525-4.719v11.413c0 0.831 0.669 1.5 1.5 1.5h1c0.831 0 1.5-0.669 1.5-1.5v-11.412l4.525 4.719c0.581 0.606 1.55 0.619 2.144 0.025l0.681-0.688c0.587-0.587 0.587-1.537 0-2.119l-8.287-8.294c-0.587-0.588-1.537-0.588-2.119 0l-8.3 8.294c-0.588 0.588-0.588 1.537 0 2.119l0.681 0.688c0.6 0.594 1.569 0.581 2.15-0.025z"></path>
</symbol>
<symbol id="icon-close-circle" viewBox="0 0 32 32">
<path d="M16 0.5c-8.563 0-15.5 6.938-15.5 15.5s6.938 15.5 15.5 15.5 15.5-6.938 15.5-15.5-6.938-15.5-15.5-15.5zM16 28.5c-6.906 0-12.5-5.594-12.5-12.5s5.594-12.5 12.5-12.5 12.5 5.594 12.5 12.5-5.594 12.5-12.5 12.5zM22.363 12.113l-3.887 3.887 3.887 3.887c0.294 0.294 0.294 0.769 0 1.063l-1.413 1.413c-0.294 0.294-0.769 0.294-1.063 0l-3.887-3.887-3.887 3.887c-0.294 0.294-0.769 0.294-1.063 0l-1.412-1.413c-0.294-0.294-0.294-0.769 0-1.063l3.888-3.887-3.887-3.887c-0.294-0.294-0.294-0.769 0-1.063l1.412-1.412c0.294-0.294 0.769-0.294 1.063 0l3.888 3.888 3.887-3.887c0.294-0.294 0.769-0.294 1.063 0l1.413 1.412c0.294 0.294 0.294 0.769 0 1.063z"></path>
</symbol>
<symbol id="icon-check-circle" viewBox="0 0 32 32">
<path d="M31.5 16c0 8.56-6.94 15.5-15.5 15.5s-15.5-6.94-15.5-15.5 6.94-15.5 15.5-15.5 15.5 6.94 15.5 15.5zM14.207 24.207l11.5-11.5c0.39-0.39 0.39-1.024 0-1.414l-1.414-1.414c-0.39-0.391-1.024-0.391-1.414 0l-9.379 9.379-4.379-4.379c-0.39-0.39-1.024-0.39-1.414 0l-1.414 1.414c-0.391 0.39-0.391 1.024 0 1.414l6.5 6.5c0.391 0.391 1.024 0.391 1.414 0z"></path>
</symbol>
<symbol id="icon-search" viewBox="0 0 32 32">
<path d="M31.563 27.669l-6.231-6.231c-0.281-0.281-0.663-0.438-1.063-0.438h-1.019c1.725-2.206 2.75-4.981 2.75-8 0-7.181-5.819-13-13-13s-13 5.819-13 13 5.819 13 13 13c3.019 0 5.794-1.025 8-2.75v1.019c0 0.4 0.156 0.781 0.438 1.063l6.231 6.231c0.587 0.587 1.538 0.587 2.119 0l1.769-1.769c0.587-0.587 0.587-1.538 0.006-2.125zM13 21c-4.419 0-8-3.575-8-8 0-4.419 3.575-8 8-8 4.419 0 8 3.575 8 8 0 4.419-3.575 8-8 8z"></path>
</symbol>
<symbol id="icon-bell" viewBox="0 0 28 32">
<path d="M27.462 22.643c-1.207-1.297-3.467-3.249-3.467-9.643 0-4.856-3.405-8.744-7.996-9.697v-1.303c0-1.104-0.895-2-1.999-2s-1.999 0.896-1.999 2v1.303c-4.591 0.954-7.996 4.841-7.996 9.697 0 6.394-2.259 8.346-3.467 9.643-0.375 0.403-0.541 0.885-0.538 1.357 0.007 1.025 0.811 2 2.006 2h23.988c1.195 0 2-0.975 2.006-2 0.003-0.472-0.163-0.954-0.538-1.357zM4.221 23c1.326-1.748 2.776-4.646 2.783-9.964 0-0.012-0.004-0.024-0.004-0.036 0-3.866 3.134-7 7-7s7 3.134 7 7c0 0.012-0.004 0.024-0.004 0.036 0.007 5.319 1.457 8.216 2.783 9.964h-19.559zM14 32c2.207 0 3.998-1.791 3.998-4h-7.996c0 2.209 1.791 4 3.998 4z"></path>
</symbol>
<symbol id="icon-google" viewBox="0 0 31 32">
<path d="M30.5 16.363c0 8.844-6.056 15.137-15 15.137-8.575 0-15.5-6.925-15.5-15.5s6.925-15.5 15.5-15.5c4.175 0 7.688 1.531 10.394 4.056l-4.219 4.056c-5.519-5.325-15.781-1.325-15.781 7.387 0 5.406 4.319 9.788 9.606 9.788 6.137 0 8.438-4.4 8.8-6.681h-8.8v-5.331h14.756c0.144 0.794 0.244 1.556 0.244 2.587z"></path>
</symbol>
<symbol id="icon-instagram" viewBox="0 0 28 32">
<path d="M14.006 8.813c-3.975 0-7.181 3.206-7.181 7.181s3.206 7.181 7.181 7.181 7.181-3.206 7.181-7.181-3.206-7.181-7.181-7.181zM14.006 20.663c-2.569 0-4.669-2.094-4.669-4.669s2.094-4.669 4.669-4.669 4.669 2.094 4.669 4.669-2.1 4.669-4.669 4.669zM23.156 8.519c0 0.931-0.75 1.675-1.675 1.675-0.931 0-1.675-0.75-1.675-1.675s0.75-1.675 1.675-1.675 1.675 0.75 1.675 1.675zM27.913 10.219c-0.106-2.244-0.619-4.231-2.262-5.869-1.637-1.638-3.625-2.15-5.869-2.263-2.313-0.131-9.244-0.131-11.556 0-2.237 0.106-4.225 0.619-5.869 2.256s-2.15 3.625-2.263 5.869c-0.131 2.313-0.131 9.244 0 11.556 0.106 2.244 0.619 4.231 2.263 5.869s3.625 2.15 5.869 2.262c2.313 0.131 9.244 0.131 11.556 0 2.244-0.106 4.231-0.619 5.869-2.262 1.637-1.637 2.15-3.625 2.262-5.869 0.131-2.313 0.131-9.238 0-11.55zM24.925 24.25c-0.488 1.225-1.431 2.169-2.663 2.663-1.844 0.731-6.219 0.563-8.256 0.563s-6.419 0.163-8.256-0.563c-1.225-0.488-2.169-1.431-2.663-2.663-0.731-1.844-0.563-6.219-0.563-8.256s-0.163-6.419 0.563-8.256c0.487-1.225 1.431-2.169 2.663-2.662 1.844-0.731 6.219-0.563 8.256-0.563s6.419-0.162 8.256 0.563c1.225 0.487 2.169 1.431 2.663 2.662 0.731 1.844 0.563 6.219 0.563 8.256s0.169 6.419-0.563 8.256z"></path>
</symbol>
<symbol id="icon-odnoklassniki" viewBox="0 0 20 32">
<path d="M17.194 20.875c-1.713 1.087-4.069 1.519-5.625 1.681l1.306 1.288 4.769 4.769c1.744 1.788-1.094 4.581-2.856 2.856-1.194-1.212-2.944-2.962-4.769-4.788l-4.769 4.781c-1.763 1.719-4.6-1.1-2.837-2.856 1.212-1.212 2.944-2.962 4.769-4.769l1.287-1.288c-1.537-0.163-3.931-0.569-5.662-1.681-2.038-1.313-2.931-2.081-2.144-3.688 0.462-0.913 1.731-1.681 3.413-0.356 0 0 2.269 1.806 5.931 1.806s5.931-1.806 5.931-1.806c1.681-1.319 2.944-0.556 3.412 0.356 0.775 1.606-0.119 2.375-2.156 3.694zM1.894 8.106c0-4.481 3.644-8.106 8.106-8.106s8.106 3.625 8.106 8.106c0 4.463-3.644 8.088-8.106 8.088s-8.106-3.625-8.106-8.088zM6.019 8.106c0 2.194 1.788 3.981 3.981 3.981s3.981-1.787 3.981-3.981c0-2.213-1.787-4-3.981-4s-3.981 1.787-3.981 4z"></path>
</symbol>
<symbol id="icon-vk" viewBox="0 0 36 32">
<path d="M34.063 7.356c0.231-0.781 0-1.356-1.112-1.356h-3.681c-0.938 0-1.369 0.494-1.6 1.044 0 0-1.875 4.569-4.525 7.531-0.856 0.856-1.25 1.131-1.719 1.131-0.231 0-0.587-0.275-0.587-1.056v-7.294c0-0.938-0.262-1.356-1.038-1.356h-5.787c-0.588 0-0.938 0.438-0.938 0.844 0 0.888 1.325 1.094 1.463 3.594v5.425c0 1.188-0.213 1.406-0.681 1.406-1.25 0-4.287-4.588-6.088-9.838-0.362-1.019-0.719-1.431-1.662-1.431h-3.681c-1.050 0-1.262 0.494-1.262 1.044 0 0.975 1.25 5.819 5.819 12.219 3.044 4.369 7.331 6.738 11.231 6.738 2.344 0 2.631-0.525 2.631-1.431 0-4.175-0.212-4.569 0.962-4.569 0.544 0 1.481 0.275 3.669 2.381 2.5 2.5 2.913 3.619 4.313 3.619h3.681c1.050 0 1.581-0.525 1.275-1.563-0.7-2.181-5.431-6.669-5.644-6.969-0.544-0.7-0.387-1.012 0-1.637 0.006-0.006 4.5-6.331 4.963-8.475z"></path>
</symbol>
<symbol id="icon-check" viewBox="0 0 32 32">
<path d="M10.869 27.463l-10.4-10.4c-0.625-0.625-0.625-1.638 0-2.263l2.263-2.263c0.625-0.625 1.638-0.625 2.263 0l7.006 7.006 15.006-15.006c0.625-0.625 1.638-0.625 2.263 0l2.263 2.263c0.625 0.625 0.625 1.638 0 2.263l-18.4 18.4c-0.625 0.625-1.638 0.625-2.263-0z"></path>
</symbol>
<symbol id="icon-arrow-down" viewBox="0 0 28 32">
<path d="M12.939 23.842l-12.146-12.146c-0.586-0.586-0.586-1.536 0-2.121l1.417-1.417c0.585-0.585 1.533-0.586 2.119-0.002l9.672 9.626 9.672-9.626c0.586-0.583 1.534-0.582 2.119 0.002l1.417 1.417c0.586 0.586 0.586 1.536 0 2.121l-12.146 12.146c-0.586 0.586-1.536 0.586-2.121 0z"></path>
</symbol>
<symbol id="icon-cog" viewBox="0 0 32 32">
<path d="M30.462 19.731l-2.663-1.538c0.269-1.45 0.269-2.938 0-4.387l2.663-1.537c0.306-0.175 0.444-0.537 0.344-0.875-0.694-2.225-1.875-4.237-3.419-5.912-0.238-0.256-0.625-0.319-0.925-0.144l-2.663 1.538c-1.119-0.963-2.406-1.706-3.8-2.194v-3.069c0-0.35-0.244-0.656-0.587-0.731-2.294-0.512-4.644-0.487-6.825 0-0.344 0.075-0.588 0.381-0.588 0.731v3.075c-1.387 0.494-2.675 1.237-3.8 2.194l-2.656-1.537c-0.306-0.175-0.688-0.119-0.925 0.144-1.544 1.669-2.725 3.681-3.419 5.912-0.106 0.338 0.038 0.7 0.344 0.875l2.662 1.537c-0.269 1.45-0.269 2.938 0 4.388l-2.663 1.538c-0.306 0.175-0.444 0.538-0.344 0.875 0.694 2.225 1.875 4.238 3.419 5.912 0.237 0.256 0.625 0.319 0.925 0.144l2.663-1.538c1.119 0.962 2.406 1.706 3.8 2.194v3.075c0 0.35 0.244 0.656 0.588 0.731 2.294 0.512 4.644 0.488 6.825 0 0.344-0.075 0.587-0.381 0.587-0.731v-3.075c1.387-0.494 2.675-1.238 3.8-2.194l2.663 1.538c0.306 0.175 0.688 0.119 0.925-0.144 1.544-1.669 2.725-3.681 3.419-5.913 0.094-0.344-0.044-0.706-0.35-0.881zM16 21c-2.756 0-5-2.244-5-5s2.244-5 5-5 5 2.244 5 5-2.244 5-5 5z"></path>
</symbol>
<symbol id="icon-heart" viewBox="0 0 32 32">
<path d="M28.65 4.019c-3.613-3.038-9.194-2.581-12.65 0.938-3.456-3.519-9.037-3.981-12.65-0.938-4.7 3.956-4.013 10.406-0.663 13.825l10.963 11.169c0.625 0.637 1.463 0.994 2.35 0.994 0.894 0 1.725-0.35 2.35-0.988l10.963-11.169c3.344-3.419 4.044-9.869-0.663-13.831zM27.175 15.738l-10.963 11.169c-0.15 0.15-0.275 0.15-0.425 0l-10.963-11.169c-2.281-2.325-2.744-6.725 0.456-9.419 2.431-2.044 6.181-1.737 8.531 0.656l2.188 2.231 2.188-2.231c2.363-2.406 6.113-2.7 8.531-0.662 3.194 2.694 2.719 7.119 0.456 9.425z"></path>
</symbol>
<symbol id="icon-location-arrow" viewBox="0 0 32 32">
<path d="M27.782 0.22l-25.986 11.994c-2.998 1.399-1.999 5.797 1.199 5.797h10.994v10.994c0 3.198 4.397 4.198 5.797 1.199l11.994-25.986c0.999-2.399-1.599-4.998-3.998-3.998z"></path>
</symbol>
<symbol id="icon-message" viewBox="0 0 32 32">
<path d="M29 4h-26c-1.657 0-3 1.343-3 3v18c0 1.657 1.343 3 3 3h26c1.657 0 3-1.343 3-3v-18c0-1.657-1.343-3-3-3zM29 7v2.55c-1.401 1.141-3.636 2.916-8.412 6.656-1.053 0.828-3.138 2.817-4.588 2.794-1.45 0.023-3.536-1.966-4.588-2.794-4.775-3.739-7.010-5.514-8.412-6.656v-2.55h26zM3 25v-11.6c1.432 1.141 3.463 2.741 6.559 5.165 1.366 1.075 3.758 3.449 6.441 3.435 2.67 0.014 5.032-2.325 6.441-3.434 3.096-2.424 5.127-4.025 6.559-5.166v11.6h-26z"></path>
</symbol>
<symbol id="icon-select-more" viewBox="0 0 20 32">
<path d="M1.956 12h16.081c1.113 0 1.669 1.344 0.881 2.131l-8.037 8.044c-0.488 0.488-1.281 0.488-1.769 0l-8.037-8.044c-0.787-0.787-0.231-2.131 0.881-2.131z"></path>
</symbol>
<symbol id="icon-star" viewBox="0 0 36 32">
<path fill="#f8b704" style="fill: var(--color2, #f8b704)" d="M16.206 1.113l-4.081 8.275-9.131 1.331c-1.637 0.238-2.294 2.256-1.106 3.412l6.606 6.438-1.563 9.094c-0.281 1.644 1.45 2.875 2.9 2.106l8.169-4.294 8.169 4.294c1.45 0.762 3.181-0.462 2.9-2.106l-1.563-9.094 6.606-6.438c1.188-1.156 0.531-3.175-1.106-3.412l-9.131-1.331-4.081-8.275c-0.731-1.475-2.85-1.494-3.587 0z"></path>
</symbol>
<symbol id="icon-wallet" viewBox="0 0 32 32">
<path d="M28.825 8h-23.825c-0.553 0-1-0.447-1-1s0.447-1 1-1h24c0.552 0 1-0.447 1-1 0-1.657-1.343-3-3-3h-23c-2.209 0-4 1.791-4 4v20c0 2.209 1.791 4 4 4h24.825c1.751 0 3.175-1.346 3.175-3v-16c0-1.654-1.424-3-3.175-3zM26 21c-1.104 0-2-0.896-2-2s0.896-2 2-2 2 0.896 2 2-0.896 2-2 2z"></path>
</symbol>
</defs>
</svg>
