<svg aria-hidden="true" style="position: absolute; width: 0; height: 0; overflow: hidden;" version="1.1" xmlns="http://www.w3.org/2000/svg" xmlns:xlink="http://www.w3.org/1999/xlink">
<defs>
<symbol id="icon-check" viewBox="0 0 32 32">
<path fill="#95c31a" style="fill: var(--color1, #95c31a)" d="M10.869 27.463l-10.4-10.4c-0.625-0.625-0.625-1.638 0-2.263l2.263-2.263c0.625-0.625 1.638-0.625 2.263 0l7.006 7.006 15.006-15.006c0.625-0.625 1.638-0.625 2.263 0l2.263 2.263c0.625 0.625 0.625 1.638 0 2.263l-18.4 18.4c-0.625 0.625-1.638 0.625-2.263-0z"></path>
</symbol>
<symbol id="icon-arrow-down" viewBox="0 0 28 32">
<path d="M12.939 23.842l-12.146-12.146c-0.586-0.586-0.586-1.536 0-2.121l1.417-1.417c0.585-0.585 1.533-0.586 2.119-0.002l9.672 9.626 9.672-9.626c0.586-0.583 1.534-0.582 2.119 0.002l1.417 1.417c0.586 0.586 0.586 1.536 0 2.121l-12.146 12.146c-0.586 0.586-1.536 0.586-2.121 0z"></path>
</symbol>
<symbol id="icon-cog" viewBox="0 0 32 32">
<path d="M30.462 19.731l-2.663-1.538c0.269-1.45 0.269-2.938 0-4.387l2.663-1.537c0.306-0.175 0.444-0.537 0.344-0.875-0.694-2.225-1.875-4.237-3.419-5.912-0.238-0.256-0.625-0.319-0.925-0.144l-2.663 1.538c-1.119-0.963-2.406-1.706-3.8-2.194v-3.069c0-0.35-0.244-0.656-0.587-0.731-2.294-0.512-4.644-0.487-6.825 0-0.344 0.075-0.588 0.381-0.588 0.731v3.075c-1.387 0.494-2.675 1.237-3.8 2.194l-2.656-1.537c-0.306-0.175-0.688-0.119-0.925 0.144-1.544 1.669-2.725 3.681-3.419 5.912-0.106 0.338 0.038 0.7 0.344 0.875l2.662 1.537c-0.269 1.45-0.269 2.938 0 4.388l-2.663 1.538c-0.306 0.175-0.444 0.538-0.344 0.875 0.694 2.225 1.875 4.238 3.419 5.912 0.237 0.256 0.625 0.319 0.925 0.144l2.663-1.538c1.119 0.962 2.406 1.706 3.8 2.194v3.075c0 0.35 0.244 0.656 0.588 0.731 2.294 0.512 4.644 0.488 6.825 0 0.344-0.075 0.587-0.381 0.587-0.731v-3.075c1.387-0.494 2.675-1.238 3.8-2.194l2.663 1.538c0.306 0.175 0.688 0.119 0.925-0.144 1.544-1.669 2.725-3.681 3.419-5.913 0.094-0.344-0.044-0.706-0.35-0.881zM16 21c-2.756 0-5-2.244-5-5s2.244-5 5-5 5 2.244 5 5-2.244 5-5 5z"></path>
</symbol>
<symbol id="icon-heart" viewBox="0 0 32 32">
<path d="M28.65 4.019c-3.613-3.038-9.194-2.581-12.65 0.938-3.456-3.519-9.037-3.981-12.65-0.938-4.7 3.956-4.013 10.406-0.663 13.825l10.963 11.169c0.625 0.637 1.463 0.994 2.35 0.994 0.894 0 1.725-0.35 2.35-0.988l10.963-11.169c3.344-3.419 4.044-9.869-0.663-13.831zM27.175 15.738l-10.963 11.169c-0.15 0.15-0.275 0.15-0.425 0l-10.963-11.169c-2.281-2.325-2.744-6.725 0.456-9.419 2.431-2.044 6.181-1.737 8.531 0.656l2.188 2.231 2.188-2.231c2.363-2.406 6.113-2.7 8.531-0.662 3.194 2.694 2.719 7.119 0.456 9.425z"></path>
</symbol>
<symbol id="icon-location-arrow" viewBox="0 0 32 32">
<path d="M27.782 0.22l-25.986 11.994c-2.998 1.399-1.999 5.797 1.199 5.797h10.994v10.994c0 3.198 4.397 4.198 5.797 1.199l11.994-25.986c0.999-2.399-1.599-4.998-3.998-3.998z"></path>
</symbol>
<symbol id="icon-message" viewBox="0 0 32 32">
<path d="M29 4h-26c-1.657 0-3 1.343-3 3v18c0 1.657 1.343 3 3 3h26c1.657 0 3-1.343 3-3v-18c0-1.657-1.343-3-3-3zM29 7v2.55c-1.401 1.141-3.636 2.916-8.412 6.656-1.053 0.828-3.138 2.817-4.588 2.794-1.45 0.023-3.536-1.966-4.588-2.794-4.775-3.739-7.010-5.514-8.412-6.656v-2.55h26zM3 25v-11.6c1.432 1.141 3.463 2.741 6.559 5.165 1.366 1.075 3.758 3.449 6.441 3.435 2.67 0.014 5.032-2.325 6.441-3.434 3.096-2.424 5.127-4.025 6.559-5.166v11.6h-26z"></path>
</symbol>
<symbol id="icon-select-more" viewBox="0 0 20 32">
<path d="M1.956 12h16.081c1.113 0 1.669 1.344 0.881 2.131l-8.037 8.044c-0.488 0.488-1.281 0.488-1.769 0l-8.037-8.044c-0.787-0.787-0.231-2.131 0.881-2.131z"></path>
</symbol>
<symbol id="icon-star" viewBox="0 0 36 32">
<path fill="#f8b704" style="fill: var(--color2, #f8b704)" d="M16.206 1.113l-4.081 8.275-9.131 1.331c-1.637 0.238-2.294 2.256-1.106 3.412l6.606 6.438-1.563 9.094c-0.281 1.644 1.45 2.875 2.9 2.106l8.169-4.294 8.169 4.294c1.45 0.762 3.181-0.462 2.9-2.106l-1.563-9.094 6.606-6.438c1.188-1.156 0.531-3.175-1.106-3.412l-9.131-1.331-4.081-8.275c-0.731-1.475-2.85-1.494-3.587 0z"></path>
</symbol>
<symbol id="icon-wallet" viewBox="0 0 32 32">
<path d="M28.825 8h-23.825c-0.553 0-1-0.447-1-1s0.447-1 1-1h24c0.552 0 1-0.447 1-1 0-1.657-1.343-3-3-3h-23c-2.209 0-4 1.791-4 4v20c0 2.209 1.791 4 4 4h24.825c1.751 0 3.175-1.346 3.175-3v-16c0-1.654-1.424-3-3.175-3zM26 21c-1.104 0-2-0.896-2-2s0.896-2 2-2 2 0.896 2 2-0.896 2-2 2z"></path>
</symbol>
</defs>
</svg>
